<?xml version="1.0" encoding="utf-8"?>
<!-- Generator: Adobe Illustrator 23.0.4, SVG Export Plug-In . SVG Version: 6.00 Build 0)  -->
<svg version="1.1" id="Layer_1" xmlns="http://www.w3.org/2000/svg" xmlns:xlink="http://www.w3.org/1999/xlink" x="0px" y="0px"
	 viewBox="0 0 150 150" style="enable-background:new 0 0 150 150;" xml:space="preserve">
<style type="text/css">
	.st0{fill:none;}
	.st1{fill:#FF0B0B;}
</style>
<g id="Path_1813" transform="translate(7263 8384)">
	<path class="st0" d="M-7188-8384c41.4,0,75,33.6,75,75s-33.6,75-75,75s-75-33.6-75-75S-7229.4-8384-7188-8384z"/>
	<path class="st1" d="M-7188-8374c-35.8,0-65,29.2-65,65s29.2,65,65,65s65-29.2,65-65S-7152.2-8374-7188-8374 M-7188-8384
		c41.4,0,75,33.6,75,75s-33.6,75-75,75s-75-33.6-75-75S-7229.4-8384-7188-8384z"/>
</g>
<g id="Group_81" transform="translate(6523 7782)">
	<circle id="Ellipse_2749" class="st1" cx="-6477.5" cy="-7720.5" r="7.5"/>
	<circle id="Ellipse_2750" class="st1" cx="-6417.5" cy="-7720.5" r="7.5"/>
</g>
<path class="st1" d="M106.2,118.8c-1.2,0-2.4-0.4-3.3-1.3c-29.8-26.5-53-1.5-53.9-0.4c-1.8,2-5,2.2-7.1,0.4c-2.1-1.8-2.2-5-0.4-7
	c0.5-0.6,12.6-14,31.4-15.1c12.6-0.7,24.9,4.2,36.7,14.7c2.1,1.8,2.2,5,0.4,7.1C108.9,118.2,107.6,118.8,106.2,118.8z"/>
</svg>
