<svg xmlns="http://www.w3.org/2000/svg" width="25" height="19.025" viewBox="0 0 25 19.025"><defs><style>.a{fill:#fff;}</style></defs><g transform="translate(0 -57.75)"><g transform="translate(0 57.75)"><path class="a" d="M21.948,57.75H3.057A3.06,3.06,0,0,0,0,60.807V73.718a3.06,3.06,0,0,0,3.057,3.057H21.943A3.06,3.06,0,0,0,25,73.718V60.812A3.056,3.056,0,0,0,21.948,57.75Zm1.66,15.968a1.662,1.662,0,0,1-1.66,1.66H3.057a1.662,1.662,0,0,1-1.66-1.66V60.812a1.662,1.662,0,0,1,1.66-1.66H21.943a1.662,1.662,0,0,1,1.66,1.66V73.718Z" transform="translate(0 -57.75)"/><path class="a" d="M67.442,114.811l5.548-4.831a.606.606,0,0,0,.047-.87.65.65,0,0,0-.9-.046l-7.65,6.667L63,114.437s-.009-.009-.009-.014a.931.931,0,0,0-.1-.087l-6.073-5.277a.646.646,0,0,0-.9.05.6.6,0,0,0,.052.87l5.613,4.872-5.59,5.081a.605.605,0,0,0-.028.87.658.658,0,0,0,.465.2.646.646,0,0,0,.432-.164l5.675-5.154,1.539,1.335a.646.646,0,0,0,.845,0l1.582-1.376,5.642,5.2a.649.649,0,0,0,.9-.023.605.605,0,0,0-.023-.87Z" transform="translate(-51.976 -105.438)"/></g></g></svg>