<svg xmlns="http://www.w3.org/2000/svg" width="54.318" height="57.989" viewBox="0 0 54.318 57.989"><defs><style>.a{fill:#fff;}</style></defs><g transform="translate(1.092 -3.7)"><g transform="translate(9.181 3.7)"><path class="a" d="M7.518,41.44,7.2,61.172l5.748,3.445.315-19.6Z" transform="translate(-7.2 -32.004)"/><path class="a" d="M126.283,43.64l-.318,19.729-5.855,3.26.315-19.6Z" transform="translate(-91.88 -33.654)"/><path class="a" d="M9.45,12.821l5.728,3.608L32.282,7,26.4,3.7Z" transform="translate(-8.887 -3.7)"/><path class="a" d="M97.448,32.181l5.8-3.388L95.53,24.23l-5.78,3.345Z" transform="translate(-69.111 -19.097)"/><path class="a" d="M66.7,47.13a2.915,2.915,0,0,0-.605,5.763l.04,19.9.57,1.185.613-1.185v-19.9A2.914,2.914,0,0,0,66.7,47.13Zm1.145,3.825a1.458,1.458,0,1,1,.32-.91A1.458,1.458,0,0,1,67.845,50.955Z" transform="translate(-49.643 -36.272)"/><path class="a" d="M89.292,73.51a2.183,2.183,0,0,0-1.318,3.923,2.123,2.123,0,0,0,.858.4v13.6l.458.65.46-.65V77.83a2.185,2.185,0,0,0-.46-4.32Zm.853,2.873a1.093,1.093,0,1,1,.25-.683A1.093,1.093,0,0,1,90.145,76.383Z" transform="translate(-67.13 -56.056)"/><path class="a" d="M48.562,73.51a2.183,2.183,0,0,0-1.318,3.923,2.128,2.128,0,0,0,.858.4v13.6l.46.65.46-.65V77.83a2.185,2.185,0,0,0-.46-4.32Zm.853,2.873a1.093,1.093,0,1,1,.25-.683A1.093,1.093,0,0,1,49.415,76.383Z" transform="translate(-36.584 -56.056)"/></g><g transform="translate(-1.092 44.188)"><path class="a" d="M169.28,57.69h2.291V70.133H169.28Z" transform="translate(-169.28 -56.846)"/><path class="a" d="M196.63,78.44H198.7v1.353h.037a2.751,2.751,0,0,1,1.009-1.117,2.974,2.974,0,0,1,1.7-.482,3.387,3.387,0,0,1,1.467.29,2.855,2.855,0,0,1,1,.774,3.041,3.041,0,0,1,.572,1.089,4.456,4.456,0,0,1,.183,1.265v5.272h-2.182V82.2a5.747,5.747,0,0,0-.055-.774,2.094,2.094,0,0,0-.235-.734,1.554,1.554,0,0,0-.5-.535,1.518,1.518,0,0,0-.845-.211,1.863,1.863,0,0,0-1.535.721,2.268,2.268,0,0,0-.367.734,2.776,2.776,0,0,0-.128.834v4.64H196.63Z" transform="translate(-191.614 -73.589)"/><path class="a" d="M260.824,66.376h-2.072V65.111h-.035a2.935,2.935,0,0,1-1.264,1.124,3.963,3.963,0,0,1-1.735.387,4.277,4.277,0,0,1-1.792-.367,4.128,4.128,0,0,1-1.344-.966,4.283,4.283,0,0,1-.855-1.423,5.087,5.087,0,0,1-.3-1.75,4.845,4.845,0,0,1,.308-1.74,4.219,4.219,0,0,1,.873-1.4,4.034,4.034,0,0,1,1.344-.941,4.2,4.2,0,0,1,1.709-.343,3.972,3.972,0,0,1,1.071.132,3.927,3.927,0,0,1,.827.325,3.143,3.143,0,0,1,.609.422,3.258,3.258,0,0,1,.418.44h.055V53.09h2.18Zm-7.178-4.253a3.283,3.283,0,0,0,.154.985,2.655,2.655,0,0,0,.464.878,2.422,2.422,0,0,0,.781.633,2.586,2.586,0,0,0,2.173.007,2.617,2.617,0,0,0,.809-.625,2.659,2.659,0,0,0,.508-.869,2.877,2.877,0,0,0,.174-.976,2.934,2.934,0,0,0-.174-.983,2.67,2.67,0,0,0-.508-.88,2.751,2.751,0,0,0-.809-.631,2.3,2.3,0,0,0-1.073-.246,2.446,2.446,0,0,0-1.1.237,2.313,2.313,0,0,0-.781.625,2.668,2.668,0,0,0-.464.864A3.2,3.2,0,0,0,253.646,62.124Z" transform="translate(-236.364 -53.09)"/><path class="a" d="M323.155,82.793v.281a2.049,2.049,0,0,1-.018.281H316.5a2.064,2.064,0,0,0,.246.836,2.159,2.159,0,0,0,.55.649,2.834,2.834,0,0,0,.781.431,2.674,2.674,0,0,0,.917.158,2.98,2.98,0,0,0,1.381-.29,2.551,2.551,0,0,0,.917-.8l1.454,1.124a4.408,4.408,0,0,1-3.743,1.687,5.531,5.531,0,0,1-1.872-.306,4.4,4.4,0,0,1-1.48-.871,3.92,3.92,0,0,1-.983-1.379,4.645,4.645,0,0,1-.354-1.854,4.727,4.727,0,0,1,.354-1.854,4.219,4.219,0,0,1,.979-1.416,4.378,4.378,0,0,1,1.467-.917,5.056,5.056,0,0,1,1.834-.325,4.768,4.768,0,0,1,1.682.29,3.667,3.667,0,0,1,1.328.855,3.986,3.986,0,0,1,.882,1.425A5.722,5.722,0,0,1,323.155,82.793Zm-2.181-.95a2.509,2.509,0,0,0-.117-.772,1.735,1.735,0,0,0-.367-.651,1.82,1.82,0,0,0-.644-.449,2.348,2.348,0,0,0-.917-.167,2.5,2.5,0,0,0-1.661.572,2.062,2.062,0,0,0-.756,1.467Z" transform="translate(-287.719 -73.618)"/><path class="a" d="M370.24,86.113l4.708-4.885h-4.489V79.54h7.086V81.4l-4.724,4.851h4.942v1.722h-7.519Z" transform="translate(-333.386 -74.689)"/><path class="a" d="M414.63,79.54h2.417l2.435,6.136h.037l2.162-6.134h2.272l-4.121,10.244a7.258,7.258,0,0,1-.513,1.025,2.877,2.877,0,0,1-.655.756,2.633,2.633,0,0,1-.9.466,4.277,4.277,0,0,1-1.245.158,4.626,4.626,0,0,1-1.12-.123l.183-1.834a2.315,2.315,0,0,0,.425.1,3,3,0,0,0,.391.028,1.888,1.888,0,0,0,.581-.079,1,1,0,0,0,.4-.248,1.665,1.665,0,0,0,.29-.413c.084-.163.183-.367.273-.58l.436-1.073Z" transform="translate(-369.636 -74.689)"/></g></g></svg>