<svg xmlns="http://www.w3.org/2000/svg" width="113.491" height="37.348" viewBox="0 0 113.491 37.348"><defs><style>.a{fill:#fff;}</style></defs><g transform="translate(-7.2 -3.7)"><path class="a" d="M7.515,41.44,7.2,60.985,12.894,64.4l.312-19.416Z" transform="translate(0 -28.394)"/><path class="a" d="M126.225,43.64l-.315,19.542-5.8,3.229L120.422,47Z" transform="translate(-84.948 -30.049)"/><path class="a" d="M9.45,12.734l5.674,3.574L32.066,6.967,26.243,3.7Z" transform="translate(-1.693 0)"/><path class="a" d="M97.375,32.105l5.741-3.356-7.64-4.52L89.75,27.544Z" transform="translate(-62.106 -15.446)"/><path class="a" d="M66.672,47.13a2.888,2.888,0,0,0-.6,5.708l.04,19.711.565,1.174.607-1.174V52.838a2.886,2.886,0,0,0-.607-5.708Zm1.134,3.789a1.444,1.444,0,1,1,.317-.9A1.444,1.444,0,0,1,67.806,50.919Z" transform="translate(-42.577 -32.674)"/><path class="a" d="M89.271,73.51A2.162,2.162,0,0,0,87.966,77.4a2.1,2.1,0,0,0,.849.394v13.47l.453.644.456-.644V77.789a2.164,2.164,0,0,0-.456-4.279Zm.844,2.846a1.082,1.082,0,1,1,.248-.676A1.082,1.082,0,0,1,90.116,76.356Z" transform="translate(-60.12 -52.521)"/><path class="a" d="M48.541,73.51A2.162,2.162,0,0,0,47.236,77.4a2.107,2.107,0,0,0,.849.394v13.47l.456.644L49,91.259V77.789a2.164,2.164,0,0,0-.456-4.279Zm.844,2.846a1.082,1.082,0,1,1,.248-.676A1.082,1.082,0,0,1,49.386,76.356Z" transform="translate(-29.476 -52.521)"/><path class="a" d="M169.28,57.69h3.093v16.8H169.28Z" transform="translate(-121.941 -40.619)"/><path class="a" d="M196.63,78.527h2.8v1.828h.05a3.715,3.715,0,0,1,1.362-1.508,4.017,4.017,0,0,1,2.293-.651,4.574,4.574,0,0,1,1.981.391,3.856,3.856,0,0,1,1.345,1.045,4.107,4.107,0,0,1,.773,1.471,6.016,6.016,0,0,1,.248,1.709v7.12h-2.947V83.606a7.77,7.77,0,0,0-.074-1.045,2.828,2.828,0,0,0-.317-.991,2.1,2.1,0,0,0-.676-.723,2.051,2.051,0,0,0-1.142-.285,2.516,2.516,0,0,0-2.073.973,3.063,3.063,0,0,0-.5.991,3.753,3.753,0,0,0-.173,1.127v6.266H196.63Z" transform="translate(-142.517 -56.045)"/><path class="a" d="M264.117,71.032h-2.8V69.324h-.047a3.963,3.963,0,0,1-1.706,1.518,5.352,5.352,0,0,1-2.343.523,5.775,5.775,0,0,1-2.42-.5,5.575,5.575,0,0,1-1.815-1.305,5.785,5.785,0,0,1-1.154-1.922,6.872,6.872,0,0,1-.4-2.363,6.543,6.543,0,0,1,.416-2.35,5.7,5.7,0,0,1,1.179-1.9,5.449,5.449,0,0,1,1.815-1.27,5.669,5.669,0,0,1,2.308-.463,5.364,5.364,0,0,1,1.446.178,5.305,5.305,0,0,1,1.117.438,4.247,4.247,0,0,1,.822.57,4.4,4.4,0,0,1,.565.594h.074V53.09h2.945Zm-9.693-5.743a4.433,4.433,0,0,0,.208,1.33,3.585,3.585,0,0,0,.627,1.186,3.272,3.272,0,0,0,1.055.854,3.492,3.492,0,0,0,2.935.01,3.534,3.534,0,0,0,1.092-.844,3.59,3.59,0,0,0,.686-1.174,3.884,3.884,0,0,0,.235-1.317,3.962,3.962,0,0,0-.235-1.327,3.606,3.606,0,0,0-.686-1.189,3.715,3.715,0,0,0-1.092-.852,3.106,3.106,0,0,0-1.449-.332,3.3,3.3,0,0,0-1.486.319,3.123,3.123,0,0,0-1.055.844,3.6,3.6,0,0,0-.627,1.166A4.319,4.319,0,0,0,254.423,65.289Z" transform="translate(-183.745 -37.158)"/><path class="a" d="M326.252,84.393v.379a2.785,2.785,0,0,1-.025.379H317.27a2.786,2.786,0,0,0,.332,1.129,2.915,2.915,0,0,0,.743.877,3.829,3.829,0,0,0,1.055.582,3.611,3.611,0,0,0,1.238.213,4.024,4.024,0,0,0,1.865-.391,3.445,3.445,0,0,0,1.238-1.08L325.7,88a5.953,5.953,0,0,1-5.055,2.278,7.469,7.469,0,0,1-2.529-.414,5.943,5.943,0,0,1-2-1.176,5.292,5.292,0,0,1-1.327-1.862,6.271,6.271,0,0,1-.478-2.5,6.382,6.382,0,0,1,.478-2.5,5.7,5.7,0,0,1,1.322-1.912,5.911,5.911,0,0,1,1.981-1.238,6.828,6.828,0,0,1,2.477-.438,6.439,6.439,0,0,1,2.271.391,4.953,4.953,0,0,1,1.793,1.154,5.384,5.384,0,0,1,1.191,1.924A7.729,7.729,0,0,1,326.252,84.393Zm-2.945-1.283a3.389,3.389,0,0,0-.158-1.043,2.343,2.343,0,0,0-.5-.879,2.457,2.457,0,0,0-.869-.607,3.17,3.17,0,0,0-1.238-.225,3.371,3.371,0,0,0-2.244.773,2.784,2.784,0,0,0-1.02,1.981Z" transform="translate(-231.059 -56.071)"/><path class="a" d="M370.24,88.416l6.357-6.6h-6.063V79.54H380.1v2.516l-6.38,6.55H380.4v2.325H370.245Z" transform="translate(-273.133 -57.058)"/><path class="a" d="M414.63,79.54h3.264l3.289,8.286h.05l2.92-8.284h3.068l-5.565,13.834a9.813,9.813,0,0,1-.693,1.384,3.883,3.883,0,0,1-.884,1.02,3.554,3.554,0,0,1-1.213.629,5.775,5.775,0,0,1-1.682.213,5.332,5.332,0,0,1-.743-.035,5.386,5.386,0,0,1-.77-.131l.248-2.477a3.124,3.124,0,0,0,.575.129,4.056,4.056,0,0,0,.527.037,2.549,2.549,0,0,0,.785-.106,1.355,1.355,0,0,0,.542-.334,2.247,2.247,0,0,0,.391-.557c.114-.22.248-.5.369-.783l.589-1.449Z" transform="translate(-306.529 -57.058)"/></g></svg>