<svg xmlns="http://www.w3.org/2000/svg" width="182.967" height="193.908" viewBox="0 0 182.967 193.908"><defs><style>.a{fill:#fff;}</style></defs><g transform="translate(1.092 -3.7)"><path class="a" d="M8.269,41.44,7.2,107.9l19.359,11.6L27.62,53.481Z" transform="translate(26.314 -2.985)"/><path class="a" d="M140.9,43.64l-1.069,66.447-19.721,10.98,1.061-66.017Z" transform="translate(8.496 -3.177)"/><path class="a" d="M9.45,34.418,28.742,46.569,86.347,14.807,66.55,3.7Z" transform="translate(25.962 0)"/><path class="a" d="M115.677,51.007,135.2,39.6,109.218,24.23,89.75,35.5Z" transform="translate(13.29 -3.243)"/><path class="a" d="M73.584,47.13a9.818,9.818,0,0,0-2.038,19.409l.135,67.019,1.92,3.991,2.063-3.991V66.539A9.814,9.814,0,0,0,73.6,47.13ZM77.44,60.013a4.909,4.909,0,1,1,1.078-3.065A4.909,4.909,0,0,1,77.44,60.013Z" transform="translate(17.384 -2.982)"/><path class="a" d="M94.461,73.51a7.351,7.351,0,0,0-4.438,13.212,7.148,7.148,0,0,0,2.888,1.339v45.8l1.541,2.189L96,133.86v-45.8A7.36,7.36,0,0,0,94.453,73.51Zm2.871,9.675a3.68,3.68,0,1,1,.842-2.3A3.68,3.68,0,0,1,97.332,83.185Z" transform="translate(13.703 -6.225)"/><path class="a" d="M53.731,73.51a7.351,7.351,0,0,0-4.438,13.212,7.166,7.166,0,0,0,2.888,1.339v45.8l1.549,2.189,1.549-2.189v-45.8A7.36,7.36,0,0,0,53.731,73.51ZM56.6,83.185a3.68,3.68,0,1,1,.842-2.3A3.68,3.68,0,0,1,56.6,83.185Z" transform="translate(20.131 -6.225)"/><g transform="translate(-1.092 138.663)"><path class="a" d="M169.28,57.69h7.714V99.6H169.28Z" transform="translate(-169.28 -54.849)"/><path class="a" d="M196.63,79.025h6.979v4.558h.124a9.265,9.265,0,0,1,3.4-3.761,10.018,10.018,0,0,1,5.719-1.624,11.408,11.408,0,0,1,4.941.976,9.617,9.617,0,0,1,3.354,2.606,10.243,10.243,0,0,1,1.927,3.669,15.01,15.01,0,0,1,.618,4.262v17.757h-7.35V91.693a19.355,19.355,0,0,0-.185-2.606,7.052,7.052,0,0,0-.791-2.471,5.231,5.231,0,0,0-1.686-1.8,5.114,5.114,0,0,0-2.847-.71,6.275,6.275,0,0,0-5.17,2.427A7.638,7.638,0,0,0,204.425,89a9.351,9.351,0,0,0-.432,2.81v15.626H196.63Z" transform="translate(-179.737 -62.688)"/><path class="a" d="M283.072,97.838h-6.979V93.577h-.117a9.883,9.883,0,0,1-4.256,3.786,13.347,13.347,0,0,1-5.843,1.3,14.4,14.4,0,0,1-6.034-1.235,13.9,13.9,0,0,1-4.527-3.255,14.427,14.427,0,0,1-2.878-4.793,17.137,17.137,0,0,1-1.007-5.892,16.321,16.321,0,0,1,1.038-5.861,14.208,14.208,0,0,1,2.94-4.731,13.586,13.586,0,0,1,4.527-3.168,14.138,14.138,0,0,1,5.757-1.155,13.375,13.375,0,0,1,3.607.445,13.226,13.226,0,0,1,2.786,1.093,10.582,10.582,0,0,1,2.051,1.421,10.965,10.965,0,0,1,1.408,1.482h.185V53.09h7.344ZM258.9,83.515a11.058,11.058,0,0,0,.519,3.317,8.944,8.944,0,0,0,1.563,2.959,8.159,8.159,0,0,0,2.631,2.131,8.709,8.709,0,0,0,7.319.025,8.816,8.816,0,0,0,2.724-2.106,8.952,8.952,0,0,0,1.711-2.928,9.687,9.687,0,0,0,.587-3.286,9.878,9.878,0,0,0-.587-3.311,8.993,8.993,0,0,0-1.711-2.965,9.265,9.265,0,0,0-2.724-2.125,7.746,7.746,0,0,0-3.613-.828,8.239,8.239,0,0,0-3.706.8,7.789,7.789,0,0,0-2.631,2.106,8.984,8.984,0,0,0-1.563,2.909A10.774,10.774,0,0,0,258.9,83.515Z" transform="translate(-200.681 -53.09)"/><path class="a" d="M344.083,93.6v.945a6.912,6.912,0,0,1-.062.945h-22.34a6.949,6.949,0,0,0,.828,2.816,7.268,7.268,0,0,0,1.853,2.186,9.546,9.546,0,0,0,2.631,1.451,9.005,9.005,0,0,0,3.088.531,10.036,10.036,0,0,0,4.651-.976,8.591,8.591,0,0,0,3.088-2.693l4.9,3.786q-4.323,5.689-12.606,5.682a18.63,18.63,0,0,1-6.306-1.031,14.825,14.825,0,0,1-4.984-2.934,13.2,13.2,0,0,1-3.311-4.645,15.646,15.646,0,0,1-1.192-6.244,15.923,15.923,0,0,1,1.192-6.244,14.208,14.208,0,0,1,3.3-4.768,14.746,14.746,0,0,1,4.941-3.088,17.03,17.03,0,0,1,6.177-1.093,16.059,16.059,0,0,1,5.664.976,12.351,12.351,0,0,1,4.472,2.878,13.425,13.425,0,0,1,2.971,4.8A19.273,19.273,0,0,1,344.083,93.6Zm-7.344-3.2a8.448,8.448,0,0,0-.4-2.6,5.842,5.842,0,0,0-1.235-2.193,6.128,6.128,0,0,0-2.168-1.513,7.907,7.907,0,0,0-3.088-.562,8.4,8.4,0,0,0-5.6,1.927,6.942,6.942,0,0,0-2.545,4.941Z" transform="translate(-224.72 -62.702)"/><path class="a" d="M370.24,101.676l15.855-16.454h-15.12V79.54h23.866v6.275l-15.91,16.337h16.645v5.8H370.252Z" transform="translate(-246.097 -63.203)"/><path class="a" d="M414.63,79.54h8.14l8.2,20.666h.124l7.282-20.66h7.653l-13.879,34.5a24.459,24.459,0,0,1-1.729,3.453,9.689,9.689,0,0,1-2.2,2.545,8.865,8.865,0,0,1-3.027,1.569,14.4,14.4,0,0,1-4.194.531,15.576,15.576,0,0,1-3.773-.414l.617-6.176a7.8,7.8,0,0,0,1.433.321,10.114,10.114,0,0,0,1.316.093,6.359,6.359,0,0,0,1.958-.266,3.383,3.383,0,0,0,1.353-.834,5.608,5.608,0,0,0,.976-1.39c.284-.55.618-1.235.92-1.952l1.47-3.613Z" transform="translate(-263.064 -63.203)"/></g></g></svg>