<svg xmlns="http://www.w3.org/2000/svg" width="25" height="31.168" viewBox="0 0 25 31.168"><defs><style>.a{fill:#fff;}</style></defs><g transform="translate(-47.2)"><g transform="translate(47.2)"><path class="a" d="M59.693,0A12.51,12.51,0,0,0,47.2,12.493a12.3,12.3,0,0,0,.222,2.346c.007.046.033.183.085.418a12.3,12.3,0,0,0,.836,2.463c1.346,3.169,4.306,8.037,10.8,13.251a.885.885,0,0,0,1.111,0c6.489-5.214,9.455-10.082,10.8-13.251a12.166,12.166,0,0,0,.836-2.463c.052-.235.078-.372.085-.418a12.848,12.848,0,0,0,.222-2.346A12.53,12.53,0,0,0,59.693,0ZM70.227,14.532c0,.013-.007.026-.007.039-.007.033-.026.131-.059.281v.013A10.373,10.373,0,0,1,69.436,17c-.007.007-.007.02-.013.026-1.222,2.895-3.9,7.312-9.729,12.128-5.829-4.816-8.508-9.233-9.729-12.128-.007-.007-.007-.02-.013-.026a11.066,11.066,0,0,1-.725-2.13v-.013c-.039-.15-.052-.248-.059-.281,0-.013-.007-.026-.007-.046a10.729,10.729,0,1,1,21.066.007Z" transform="translate(-47.2 0)"/><path class="a" d="M125.305,71.9c-4.577,0-8.305,3.271-8.305,7.285s3.728,7.285,8.305,7.285,8.305-3.271,8.305-7.285S129.882,71.9,125.305,71.9Zm0,12.95c-3.564,0-6.458-2.544-6.458-5.665s2.9-5.665,6.458-5.665,6.458,2.544,6.458,5.665S128.87,84.85,125.305,84.85Z" transform="translate(-112.811 -66.804)"/></g></g></svg>