<svg id="Layer_1" data-name="Layer 1" xmlns="http://www.w3.org/2000/svg" xmlns:xlink="http://www.w3.org/1999/xlink" viewBox="0 0 20 15.16"><defs><style>.cls-1{fill:none;}.cls-2{clip-path:url(#clip-path);}</style><clipPath id="clip-path" transform="translate(0 -2)"><rect class="cls-1" width="20" height="20"/></clipPath></defs><title>mail-black</title><g class="cls-2"><g id="Mask_Group_6" data-name="Mask Group 6"><path id="gmail" d="M1.84,17.16H18.16A1.83,1.83,0,0,0,20,15.33V3.84A1.84,1.84,0,0,0,18.16,2H1.84A1.84,1.84,0,0,0,0,3.84V15.33A1.83,1.83,0,0,0,1.84,17.16ZM1.2,3.84a.64.64,0,0,1,.64-.64H18.16a.63.63,0,0,1,.64.64h0V15.33a.64.64,0,0,1-.64.64H1.84a.64.64,0,0,1-.64-.64ZM3.57,15.12H2.37v-11L9.85,9a.27.27,0,0,0,.3,0l7.47-4.86v11h-1.2V6.3L10.8,10a1.45,1.45,0,0,1-1.6,0L3.57,6.3Z" transform="translate(0 -2)"/></g></g></svg>