<svg id="Layer_1" data-name="Layer 1" xmlns="http://www.w3.org/2000/svg" xmlns:xlink="http://www.w3.org/1999/xlink" viewBox="0 0 19.96 20"><defs><style>.cls-1{fill:none;}.cls-2{clip-path:url(#clip-path);}.cls-3{fill:#050505;}</style><clipPath id="clip-path" transform="translate(-0.01 0)"><rect class="cls-1" width="20" height="20"/></clipPath></defs><title>phone-black</title><g class="cls-2"><g id="Mask_Group_7" data-name="Mask Group 7"><g id="phone-call"><g id="Group_39" data-name="Group 39"><path id="Path_1780" data-name="Path 1780" class="cls-3" d="M15.79,12.39a2,2,0,0,0-1.43-.65,2,2,0,0,0-1.44.65l-1.33,1.32-.33-.16c-.15-.08-.3-.15-.42-.23a14.54,14.54,0,0,1-3.47-3.17,8.43,8.43,0,0,1-1.14-1.8c.35-.31.67-.64,1-1L7.57,7A1.93,1.93,0,0,0,7.75,4.3a1.62,1.62,0,0,0-.18-.19L6.41,3,6,2.57C5.77,2.3,5.5,2,5.23,1.78a2,2,0,0,0-1.42-.62,2,2,0,0,0-1.43.62h0L.93,3.24A3.07,3.07,0,0,0,0,5.2,7.29,7.29,0,0,0,.56,8.33a17.77,17.77,0,0,0,3.23,5.38,19.65,19.65,0,0,0,6.61,5.18A10.33,10.33,0,0,0,14.11,20h.27A3.21,3.21,0,0,0,16.82,19a0,0,0,0,0,0,0,8.85,8.85,0,0,1,.74-.76l.55-.54a2.13,2.13,0,0,0,.64-1.46,2,2,0,0,0-.65-1.45Zm1.51,4.44h0c-.16.18-.33.34-.51.52s-.56.55-.82.84a2,2,0,0,1-1.59.67h-.19a9,9,0,0,1-3.29-1A18.68,18.68,0,0,1,4.67,13a16.94,16.94,0,0,1-3-5.06,6,6,0,0,1-.47-2.64A1.92,1.92,0,0,1,1.74,4L3.18,2.6a.9.9,0,0,1,.64-.3.86.86,0,0,1,.61.3h0c.25.24.5.49.76.76l.4.41L6.76,4.93a.8.8,0,0,1,.18,1.12.81.81,0,0,1-.18.19L6.4,6.6c-.36.36-.7.7-1.06,1,0,0,0,0,0,0a.85.85,0,0,0-.22,1v0a9.52,9.52,0,0,0,1.36,2.22h0a15.41,15.41,0,0,0,3.75,3.41,5.21,5.21,0,0,0,.52.28c.15.08.3.15.42.23l.05,0a.87.87,0,0,0,.42.1.89.89,0,0,0,.64-.29l1.44-1.44a1,1,0,0,1,.64-.32.93.93,0,0,1,.61.31h0l2.33,2.32a.83.83,0,0,1,.16,1.17A.54.54,0,0,1,17.3,16.83Z" transform="translate(-0.01 0)"/><path id="Path_1781" data-name="Path 1781" class="cls-3" d="M10.78,4.76a5.44,5.44,0,0,1,4.44,4.43.57.57,0,0,0,.56.48h.1A.58.58,0,0,0,16.35,9h0A6.58,6.58,0,0,0,11,3.63a.57.57,0,0,0-.2,1.13Z" transform="translate(-0.01 0)"/><path id="Path_1782" data-name="Path 1782" class="cls-3" d="M20,8.85A10.84,10.84,0,0,0,11.12,0a.57.57,0,0,0-.67.45.56.56,0,0,0,.44.67h0A9.69,9.69,0,0,1,18.83,9a.58.58,0,0,0,.57.48h.1A.56.56,0,0,0,20,8.86Z" transform="translate(-0.01 0)"/></g></g></g></g></svg>