<svg xmlns="http://www.w3.org/2000/svg" width="25" height="25.037" viewBox="0 0 25 25.037"><defs><style>.a{fill:#fff;}</style></defs><g transform="translate(-0.344)"><g transform="translate(0.344 0)"><path class="a" d="M20.169,41.505a2.47,2.47,0,0,0-1.791-.821,2.554,2.554,0,0,0-1.812.816l-1.675,1.669c-.138-.074-.276-.143-.408-.212-.191-.1-.371-.185-.525-.281A18.2,18.2,0,0,1,9.6,38.7a10.735,10.735,0,0,1-1.431-2.257c.435-.4.837-.811,1.229-1.208.148-.148.3-.3.445-.45a2.431,2.431,0,0,0,0-3.667L8.395,29.674c-.164-.164-.334-.334-.493-.5-.318-.329-.652-.668-1-.986a2.509,2.509,0,0,0-1.775-.779,2.6,2.6,0,0,0-1.8.779l-.011.011-1.8,1.817a3.876,3.876,0,0,0-1.15,2.464,9.287,9.287,0,0,0,.678,3.931A22.813,22.813,0,0,0,5.1,43.169a24.937,24.937,0,0,0,8.3,6.5,12.939,12.939,0,0,0,4.663,1.378c.111.005.228.011.334.011a3.993,3.993,0,0,0,3.058-1.314c.005-.011.016-.016.021-.026a12.046,12.046,0,0,1,.927-.959c.228-.217.461-.445.689-.683a2.643,2.643,0,0,0,.8-1.833,2.546,2.546,0,0,0-.816-1.817Zm1.9,5.579c-.005,0-.005.005,0,0-.207.223-.419.424-.646.646A13.933,13.933,0,0,0,20.4,48.79a2.555,2.555,0,0,1-1.992.842c-.079,0-.164,0-.244-.005a11.494,11.494,0,0,1-4.133-1.24,23.539,23.539,0,0,1-7.822-6.125A21.51,21.51,0,0,1,2.391,35.91,7.564,7.564,0,0,1,1.8,32.593a2.432,2.432,0,0,1,.731-1.574l1.807-1.807a1.2,1.2,0,0,1,.805-.376,1.134,1.134,0,0,1,.774.371l.016.016c.323.3.631.615.954.948.164.17.334.339.5.514l1.447,1.446a1.011,1.011,0,0,1,0,1.643c-.154.154-.3.307-.456.456-.445.456-.869.88-1.33,1.293-.011.011-.021.016-.026.026a1.081,1.081,0,0,0-.276,1.2l.016.048a11.613,11.613,0,0,0,1.712,2.792l.005.005a19.449,19.449,0,0,0,4.706,4.281,7.237,7.237,0,0,0,.652.355c.191.1.371.185.525.281.021.011.042.026.064.037a1.149,1.149,0,0,0,.525.132,1.133,1.133,0,0,0,.805-.366l1.812-1.812a1.2,1.2,0,0,1,.8-.4,1.079,1.079,0,0,1,.763.387l.011.011,2.92,2.919A1.048,1.048,0,0,1,22.066,47.084Z" transform="translate(-0.344 -26.022)"/><path class="a" d="M245.505,87.278a6.5,6.5,0,0,1,5.293,5.293.678.678,0,0,0,.672.566.9.9,0,0,0,.116-.01.683.683,0,0,0,.561-.788,7.86,7.86,0,0,0-6.4-6.4.685.685,0,0,0-.788.556A.675.675,0,0,0,245.505,87.278Z" transform="translate(-231.772 -81.298)"/><path class="a" d="M260.114,10.557A12.943,12.943,0,0,0,249.567.011a.681.681,0,1,0-.222,1.344,11.561,11.561,0,0,1,9.425,9.425.678.678,0,0,0,.672.566.9.9,0,0,0,.116-.01A.669.669,0,0,0,260.114,10.557Z" transform="translate(-235.124 0)"/></g></g></svg>