<svg xmlns="http://www.w3.org/2000/svg" xmlns:xlink="http://www.w3.org/1999/xlink" width="20" height="20" viewBox="0 0 20 20">
  <defs>
    <style>
      .cls-1 {
        fill: #fff;
      }

      .cls-2 {
        clip-path: url(#clip-path);
      }
    </style>
    <clipPath id="clip-path">
      <rect id="Rectangle_82" data-name="Rectangle 82" class="cls-1" width="20" height="20" transform="translate(1027 7893)"/>
    </clipPath>
  </defs>
  <g id="Mask_Group_7" data-name="Mask Group 7" class="cls-2" transform="translate(-1027 -7893)">
    <g id="phone-call" transform="translate(1026.656 7893)">
      <g id="Group_39" data-name="Group 39" transform="translate(0.344 0)">
        <path id="Path_1780" data-name="Path 1780" class="cls-1" d="M16.133,38.636a1.967,1.967,0,0,0-1.426-.654,2.034,2.034,0,0,0-1.443.65L11.93,39.961c-.11-.059-.219-.114-.325-.169-.152-.076-.3-.148-.418-.224A14.5,14.5,0,0,1,7.714,36.4a8.551,8.551,0,0,1-1.139-1.8c.346-.317.667-.646.979-.962.118-.118.236-.241.355-.359a1.936,1.936,0,0,0,0-2.92L6.756,29.212c-.131-.131-.266-.266-.392-.4-.253-.262-.519-.532-.793-.785a2,2,0,0,0-1.414-.62,2.067,2.067,0,0,0-1.435.62l-.008.008L1.278,29.482a3.088,3.088,0,0,0-.916,1.962A7.4,7.4,0,0,0,.9,34.576a18.171,18.171,0,0,0,3.229,5.385,19.86,19.86,0,0,0,6.613,5.178,10.3,10.3,0,0,0,3.714,1.1c.089,0,.181.008.266.008A3.18,3.18,0,0,0,17.159,45.2c0-.008.013-.013.017-.021a9.6,9.6,0,0,1,.739-.764c.181-.173.367-.355.549-.544a2.105,2.105,0,0,0,.637-1.46,2.028,2.028,0,0,0-.65-1.448Zm1.511,4.444s0,0,0,0c-.165.177-.333.338-.515.515a11.1,11.1,0,0,0-.815.844,2.034,2.034,0,0,1-1.587.671c-.063,0-.131,0-.194,0a9.153,9.153,0,0,1-3.292-.988A18.747,18.747,0,0,1,5.013,39.24a17.134,17.134,0,0,1-3.039-5.06A6.026,6.026,0,0,1,1.5,31.538a1.937,1.937,0,0,1,.582-1.253l1.439-1.439a.959.959,0,0,1,.641-.3.9.9,0,0,1,.616.3l.013.013c.257.241.5.49.76.755.131.135.266.27.4.409l1.152,1.152a.805.805,0,0,1,0,1.308c-.122.122-.241.245-.363.363-.355.363-.692.7-1.059,1.03-.008.008-.017.013-.021.021a.861.861,0,0,0-.219.958l.013.038a9.25,9.25,0,0,0,1.363,2.224l0,0a15.49,15.49,0,0,0,3.748,3.41,5.762,5.762,0,0,0,.519.283c.152.076.3.148.418.224.017.008.034.021.051.03a.915.915,0,0,0,.418.106.9.9,0,0,0,.641-.291l1.443-1.443a.955.955,0,0,1,.637-.317.86.86,0,0,1,.608.308l.008.008,2.325,2.325A.834.834,0,0,1,17.644,43.08Z" transform="translate(-0.344 -26.246)"/>
        <path id="Path_1781" data-name="Path 1781" class="cls-1" d="M245.414,87.059a5.45,5.45,0,0,1,4.438,4.438.568.568,0,0,0,.563.474.757.757,0,0,0,.1-.008.572.572,0,0,0,.47-.661,6.59,6.59,0,0,0-5.369-5.369.575.575,0,0,0-.661.466A.566.566,0,0,0,245.414,87.059Z" transform="translate(-234.633 -82.303)"/>
        <path id="Path_1782" data-name="Path 1782" class="cls-1" d="M258.281,8.851A10.851,10.851,0,0,0,249.439.009a.571.571,0,1,0-.186,1.126,9.692,9.692,0,0,1,7.9,7.9.568.568,0,0,0,.563.474.755.755,0,0,0,.1-.008A.561.561,0,0,0,258.281,8.851Z" transform="translate(-238.319 0)"/>
      </g>
    </g>
  </g>
</svg>
