<?xml version="1.0" encoding="utf-8"?>
<!-- Generator: Adobe Illustrator 23.0.4, SVG Export Plug-In . SVG Version: 6.00 Build 0)  -->
<svg version="1.1" id="Layer_1" xmlns="http://www.w3.org/2000/svg" xmlns:xlink="http://www.w3.org/1999/xlink" x="0px" y="0px"
	 viewBox="0 0 29 29" style="enable-background:new 0 0 29 29;" xml:space="preserve">
<style type="text/css">
	.st0{fill:#FFFFFF;}
	.st1{fill:none;}
</style>
<g id="Group_44" transform="translate(-12 -15)">
	<circle id="Ellipse_2736" class="st0" cx="18" cy="21" r="6"/>
	<g id="Ellipse_2737" transform="translate(29 15)">
		<circle class="st1" cx="6" cy="6" r="6"/>
		<path class="st0" d="M6,12c-3.3,0-6-2.7-6-6s2.7-6,6-6s6,2.7,6,6S9.3,12,6,12z M6,1C3.2,1,1,3.2,1,6s2.2,5,5,5s5-2.2,5-5
			S8.8,1,6,1z"/>
	</g>
	<g id="Ellipse_2738" transform="translate(12 32)">
		<circle class="st1" cx="6" cy="6" r="6"/>
		<path class="st0" d="M6,12c-3.3,0-6-2.7-6-6s2.7-6,6-6s6,2.7,6,6S9.3,12,6,12z M6,1C3.2,1,1,3.2,1,6s2.2,5,5,5s5-2.2,5-5
			S8.8,1,6,1z"/>
	</g>
	<circle id="Ellipse_2739" class="st0" cx="35" cy="38" r="6"/>
</g>
</svg>
