<svg xmlns="http://www.w3.org/2000/svg" xmlns:xlink="http://www.w3.org/1999/xlink" width="55.331" height="58.64" viewBox="0 0 55.331 58.64">
  <defs>
    <linearGradient id="linear-gradient" x1="0.5" y1="1" x2="0.5" gradientUnits="objectBoundingBox">
      <stop offset="0" stop-color="#fcb116"/>
      <stop offset="0.74" stop-color="#f47529"/>
    </linearGradient>
    <linearGradient id="linear-gradient-2" x1="0.5" x2="0.5" y2="0" xlink:href="#linear-gradient"/>
    <linearGradient id="linear-gradient-3" x1="0.5" x2="0.5" y2="0" xlink:href="#linear-gradient"/>
    <linearGradient id="linear-gradient-4" x1="0.5" x2="0.5" y2="0" xlink:href="#linear-gradient"/>
    <linearGradient id="linear-gradient-5" x1="0.499" y1="1" x2="0.499" gradientUnits="objectBoundingBox">
      <stop offset="0" stop-color="#2c68a1"/>
      <stop offset="0.8" stop-color="#1d1e62"/>
      <stop offset="1" stop-color="#1d1e62"/>
    </linearGradient>
  </defs>
  <g id="IndezyLogo-05" transform="translate(1.092 -3.7)">
    <path id="Path_9" data-name="Path 9" d="M7.523,41.44,7.2,61.537l5.854,3.509.321-19.964Z" transform="translate(2.173 -27.23)" fill="url(#linear-gradient)"/>
    <path id="Path_10" data-name="Path 10" d="M126.4,43.64l-.323,20.094-5.964,3.321.321-19.964Z" transform="translate(-81.98 -28.823)" fill="url(#linear-gradient-2)"/>
    <path id="Path_11" data-name="Path 11" d="M9.45,12.989l5.834,3.675L32.7,7.059,26.718,3.7Z" transform="translate(0.497 0)" fill="url(#linear-gradient-3)"/>
    <path id="Path_12" data-name="Path 12" d="M97.591,32.328l5.9-3.45L95.637,24.23,89.75,27.637Z" transform="translate(-59.351 -15.302)" fill="url(#linear-gradient-4)"/>
    <path id="Path_13" data-name="Path 13" d="M66.753,47.13A2.969,2.969,0,0,0,66.137,53l.041,20.267.581,1.207.624-1.207V53a2.968,2.968,0,0,0-.624-5.87Zm1.166,3.9a1.485,1.485,0,1,1,.326-.927A1.485,1.485,0,0,1,67.92,51.026Z" transform="translate(-40.006 -31.198)" fill="url(#linear-gradient-5)"/>
    <path id="Path_14" data-name="Path 14" d="M89.333,73.51a2.223,2.223,0,0,0-1.342,4,2.162,2.162,0,0,0,.873.4V91.76l.466.662.469-.662V77.91a2.226,2.226,0,0,0-.469-4.4Zm.868,2.926a1.113,1.113,0,1,1,.255-.7A1.113,1.113,0,0,1,90.2,76.436Z" transform="translate(-57.384 -50.581)" fill="url(#linear-gradient-5)"/>
    <path id="Path_15" data-name="Path 15" d="M48.6,73.51a2.223,2.223,0,0,0-1.342,4,2.167,2.167,0,0,0,.873.4V91.76l.469.662.469-.662V77.91a2.226,2.226,0,0,0-.469-4.4Zm.868,2.926a1.113,1.113,0,1,1,.255-.7A1.113,1.113,0,0,1,49.471,76.436Z" transform="translate(-27.028 -50.581)" fill="url(#linear-gradient-5)"/>
    <g id="Group_13" data-name="Group 13" transform="translate(-1.092 44.514)">
      <path id="Path_16" data-name="Path 16" d="M169.28,57.69h2.333V70.363H169.28Z" transform="translate(-169.28 -56.831)" fill="#f47529"/>
      <path id="Path_17" data-name="Path 17" d="M196.63,78.445h2.111v1.378h.037a2.8,2.8,0,0,1,1.027-1.137,3.029,3.029,0,0,1,1.73-.491,3.45,3.45,0,0,1,1.494.3,2.908,2.908,0,0,1,1.014.788,3.1,3.1,0,0,1,.583,1.109,4.539,4.539,0,0,1,.187,1.289v5.37H202.59v-4.77a5.852,5.852,0,0,0-.056-.788,2.132,2.132,0,0,0-.239-.747,1.582,1.582,0,0,0-.51-.545,1.547,1.547,0,0,0-.861-.215,1.9,1.9,0,0,0-1.563.734,2.31,2.31,0,0,0-.374.747,2.828,2.828,0,0,0-.131.85v4.726H196.63Z" transform="translate(-191.522 -73.504)" fill="#f47529"/>
      <path id="Path_18" data-name="Path 18" d="M261,66.622h-2.111V65.334h-.035a2.989,2.989,0,0,1-1.287,1.145,4.036,4.036,0,0,1-1.767.394,4.356,4.356,0,0,1-1.825-.374,4.2,4.2,0,0,1-1.369-.984,4.362,4.362,0,0,1-.87-1.449,5.182,5.182,0,0,1-.3-1.782,4.935,4.935,0,0,1,.314-1.773,4.3,4.3,0,0,1,.889-1.431A4.109,4.109,0,0,1,254,58.122a4.275,4.275,0,0,1,1.741-.349,4.045,4.045,0,0,1,1.091.134,4,4,0,0,1,.842.331,3.2,3.2,0,0,1,.62.43,3.317,3.317,0,0,1,.426.448h.056V53.09H261Zm-7.311-4.331a3.343,3.343,0,0,0,.157,1,2.7,2.7,0,0,0,.473.895,2.467,2.467,0,0,0,.8.644,2.634,2.634,0,0,0,2.213.007,2.666,2.666,0,0,0,.824-.637,2.707,2.707,0,0,0,.517-.885,2.929,2.929,0,0,0,.177-.994,2.987,2.987,0,0,0-.177-1,2.719,2.719,0,0,0-.517-.9,2.8,2.8,0,0,0-.824-.643,2.342,2.342,0,0,0-1.093-.25,2.492,2.492,0,0,0-1.121.241,2.355,2.355,0,0,0-.8.637,2.717,2.717,0,0,0-.473.88A3.258,3.258,0,0,0,253.687,62.291Z" transform="translate(-236.082 -53.09)" fill="#f47529"/>
      <path id="Path_19" data-name="Path 19" d="M323.318,82.878v.286a2.091,2.091,0,0,1-.019.286h-6.756a2.1,2.1,0,0,0,.25.852,2.2,2.2,0,0,0,.56.661,2.887,2.887,0,0,0,.8.439,2.723,2.723,0,0,0,.934.161,3.035,3.035,0,0,0,1.407-.3,2.6,2.6,0,0,0,.934-.814l1.481,1.145a4.49,4.49,0,0,1-3.812,1.718A5.634,5.634,0,0,1,317.186,87a4.483,4.483,0,0,1-1.507-.887,3.992,3.992,0,0,1-1-1.4,4.731,4.731,0,0,1-.361-1.888,4.815,4.815,0,0,1,.361-1.888,4.3,4.3,0,0,1,1-1.442,4.459,4.459,0,0,1,1.494-.934,5.15,5.15,0,0,1,1.868-.331,4.856,4.856,0,0,1,1.713.3,3.735,3.735,0,0,1,1.352.87,4.06,4.06,0,0,1,.9,1.451A5.828,5.828,0,0,1,323.318,82.878ZM321.1,81.91a2.555,2.555,0,0,0-.119-.786,1.767,1.767,0,0,0-.374-.663,1.854,1.854,0,0,0-.656-.458,2.391,2.391,0,0,0-.934-.17,2.542,2.542,0,0,0-1.692.583,2.1,2.1,0,0,0-.77,1.494Z" transform="translate(-287.222 -73.533)" fill="#f47529"/>
      <path id="Path_20" data-name="Path 20" d="M370.24,86.234l4.795-4.976h-4.572V79.54h7.217v1.9l-4.811,4.94H377.9v1.754h-7.658Z" transform="translate(-332.698 -74.6)" fill="#f47529"/>
      <path id="Path_21" data-name="Path 21" d="M414.63,79.54h2.462l2.481,6.25h.037l2.2-6.248h2.314l-4.2,10.434a7.4,7.4,0,0,1-.523,1.044,2.93,2.93,0,0,1-.667.77,2.681,2.681,0,0,1-.915.474,4.356,4.356,0,0,1-1.268.161,4.71,4.71,0,0,1-1.141-.125l.187-1.868a2.359,2.359,0,0,0,.433.1,3.059,3.059,0,0,0,.4.028,1.923,1.923,0,0,0,.592-.08,1.023,1.023,0,0,0,.409-.252,1.7,1.7,0,0,0,.3-.42c.086-.166.187-.374.278-.59l.445-1.093Z" transform="translate(-368.795 -74.6)" fill="#f47529"/>
    </g>
  </g>
</svg>
