<svg xmlns="http://www.w3.org/2000/svg" xmlns:xlink="http://www.w3.org/1999/xlink" width="20" height="20" viewBox="0 0 20 20">
  <defs>
    <style>
      .cls-1 {
        fill: #fff;
      }

      .cls-2 {
        clip-path: url(#clip-path);
      }
    </style>
    <clipPath id="clip-path">
      <rect id="Rectangle_81" data-name="Rectangle 81" class="cls-1" width="20" height="20" transform="translate(1030 7911)"/>
    </clipPath>
  </defs>
  <g id="Mask_Group_5" data-name="Mask Group 5" class="cls-2" transform="translate(-1030 -7911)">
    <g id="noun_subscribe_2322541" transform="translate(1024.043 7778.7)">
      <path id="Path_1831" data-name="Path 1831" class="cls-1" d="M76.943,146.135a4.76,4.76,0,0,0-.894-2.762,5.034,5.034,0,0,0-1.313-1.244V136.06a.562.562,0,0,0,0-.086,1.7,1.7,0,0,0-1.674-1.674H58.618a1.7,1.7,0,0,0-1.266.533,1.765,1.765,0,0,0-.451,1.211v10.985a1.706,1.706,0,0,0,.854,1.489,2.963,2.963,0,0,0,1.5.214h8.882c.04.062.084.126.128.185a4.927,4.927,0,0,0,2.385,1.775,4.775,4.775,0,0,0,6.235-3.781,5.375,5.375,0,0,0,.064-.753v-.022Zm-9.518-.621a5.271,5.271,0,0,0,.013,1.381c0,.02.007.04.009.059.024.154.057.306.1.458h-7.8c-.388,0-.775,0-1.163,0a.5.5,0,0,1-.057,0l.1.02-.143-.02.044.02-.048-.02a.13.13,0,0,1-.029,0l.024,0-.077-.033c.026.024,0,.009-.029-.011s-.073-.057-.013-.024a.2.2,0,0,1-.031-.031c-.011-.011-.024-.024-.035-.037l.009.015c.029.048,0,.009-.029-.024h0c-.022-.029-.037-.051-.011-.024l-.033-.079c0,.009,0,.015,0,.024,0-.009,0-.02,0-.029l-.02-.048.02.044c0-.037-.009-.073-.015-.11,0,.024.009.048.015.073-.007-.11,0-.22,0-.326v-9.481c0-.44,0-.879,0-1.319a.537.537,0,0,1,0-.059c-.007.033-.013.066-.02.1l.02-.143-.02.044.02-.048a.129.129,0,0,1,0-.029c0,.009,0,.015,0,.024l.033-.077c-.024.026-.009,0,.011-.029s.057-.073.024-.013a.205.205,0,0,1,.031-.031c.011-.011.024-.024.037-.035l-.015.009c-.048.029-.009,0,.024-.031h0c.029-.02.051-.035.024-.009l.079-.033-.024,0,.029,0,.048-.02-.044.02c.037,0,.073-.009.11-.015l-.07.013c.139-.009.28,0,.418,0H71.318c.577,0,1.154,0,1.731,0a.616.616,0,0,1,.064,0l-.1-.02.143.02-.044-.02.048.02a.129.129,0,0,1,.029,0l-.024,0,.077.033c-.026-.024,0-.009.029.011s.073.057.013.024a.2.2,0,0,1,.031.031c.011.011.024.024.035.037l-.009-.015c-.029-.048,0-.009.029.024h0c.022.029.035.051.011.024.011.029.022.055.035.084a.231.231,0,0,1,.009.022l.007.013-.007-.013c0,.009,0,.018,0,.024,0,.022.007.044.009.068a.45.45,0,0,0-.011-.053v5.6a4.867,4.867,0,0,0-2.605.018h0c-.095.029-.189.062-.282.1a4.941,4.941,0,0,0-2.215,1.658A4.6,4.6,0,0,0,67.425,145.514Zm8.17,1.119a4.119,4.119,0,0,1-.229.843,4.462,4.462,0,0,1-.348.636c-.033.051-.068.1-.106.148l.022-.024-.026.033-.007.009c-.015.022-.046.057-.046.057a3.53,3.53,0,0,1-.247.266c-.088.088-.181.172-.275.253l-.02.02-.029.02c-.055.04-.11.079-.165.117a4.184,4.184,0,0,1-.623.344,3.453,3.453,0,0,1-1.821.236,4.137,4.137,0,0,1-.841-.229,4.056,4.056,0,0,1-.608-.33c-.053-.035-.1-.07-.156-.108-.026-.018-.051-.037-.075-.057l.022.015c-.1-.081-.192-.163-.28-.251s-.176-.181-.258-.277l-.053-.066c-.031-.042-.062-.084-.09-.126a3.945,3.945,0,0,1-.372-.667,3.466,3.466,0,0,1-.236-1.81,4.029,4.029,0,0,1,.231-.852,4.461,4.461,0,0,1,.348-.636c.033-.051.068-.1.106-.148l-.022.024.026-.033.007-.009c.015-.022.046-.057.046-.057a3.538,3.538,0,0,1,.247-.266c.088-.088.181-.172.275-.253l.02-.02c-.011.007-.015.009-.013.007l0,0c-.037.024.031-.037.062-.053a.323.323,0,0,0-.051.04.385.385,0,0,1,.057-.04l.007,0h0c.04-.029.079-.057.121-.084a4.229,4.229,0,0,1,.577-.322l-.04.015.046-.02.04-.018.044-.018a.154.154,0,0,1,.029-.011l-.022.009a4.177,4.177,0,0,1,.8-.214l-.055.007a.241.241,0,0,1,.04,0,.329.329,0,0,1-.046,0l.176-.024-.075.011.081-.011-.088.013q.145-.017.291-.02a.2.2,0,0,0,.037,0l.064,0h.132c.022,0,.044,0,.066,0a.214.214,0,0,1,.037,0l.051,0h0c.081,0,.163.011.242.02l-.046-.007a.243.243,0,0,0,.04,0c-.026,0-.053-.009-.079-.011l.176.024a.3.3,0,0,0-.044,0l.037,0-.048-.007a4.2,4.2,0,0,1,.784.209h0l.048.018.046.02h0c.086.04.172.081.255.128.126.068.247.141.363.22.044.029.084.059.126.088.022.018.044.035.066.055.1.084.2.174.288.266s.172.183.251.282l.022.026.011.015c.037.051.073.1.108.154a4.3,4.3,0,0,1,.335.608,4.187,4.187,0,0,1,.231.83,4.92,4.92,0,0,1,.026.509C75.621,146.313,75.61,146.472,75.595,146.633Zm-1.9-1.141H72.82v-.881a.661.661,0,0,0-1.321,0v.881H70.62a.661.661,0,1,0,0,1.321H71.5v.877a.661.661,0,0,0,1.321,0v-.877H73.7a.661.661,0,1,0,0-1.321Z" transform="translate(-50.943)"/>
      <path id="Path_1832" data-name="Path 1832" class="cls-1" d="M168.895,252.036l-.744.449-3.27,1.973-2.07,1.249a.658.658,0,0,1-.667,0l-.747-.467-3.279-2.048-2.059-1.286a.661.661,0,0,1,.669-1.141l.747.467,3.279,2.048,1.731,1.081.405-.244,3.27-1.973,2.07-1.249a.66.66,0,1,1,.665,1.141Z" transform="translate(-147.603 -113.814)"/>
    </g>
  </g>
</svg>
